HIERARCHY
ROOT Hips
{
	OFFSET 0.000000 0.000000 0.000000
	CHANNELS 6 Xposition Yposition Zposition Xrotation Yrotation Zrotation
	JOINT LeftUpLeg_virtual
	{
		OFFSET 0.000000 0.000000 0.000000
		CHANNELS 3 Xrotation Yrotation Zrotation
		JOINT LeftUpLeg
		{
			OFFSET 13.026900 -6.336304 -1.092800
			CHANNELS 3 Xrotation Yrotation Zrotation
			JOINT LeftLeg
			{
				OFFSET 0.524474 -46.096886 9.782700
				CHANNELS 3 Xrotation Yrotation Zrotation
				JOINT LeftFoot
				{
					OFFSET -0.524474 -53.427422 -12.948200
					CHANNELS 3 Xrotation Yrotation Zrotation
					JOINT LeftToeBase
					{
						OFFSET 0.192200 -14.009700 16.364100
						CHANNELS 3 Xrotation Yrotation Zrotation
						JOINT LeftToe_End
						{
							OFFSET -1.784700 -0.561700 9.474800
							CHANNELS 3 Xrotation Yrotation Zrotation
							End Site
							{
								OFFSET 0 0 0
							}
						}
					}
				}
			}
		}
	}
	JOINT RightUpLeg_virtual
	{
		OFFSET 0.000000 0.000000 0.000000
		CHANNELS 3 Xrotation Yrotation Zrotation
		JOINT RightUpLeg
		{
			OFFSET -12.883000 -6.336304 -1.092800
			CHANNELS 3 Xrotation Yrotation Zrotation
			JOINT RightLeg
			{
				OFFSET -0.524587 -46.096825 9.782800
				CHANNELS 3 Xrotation Yrotation Zrotation
				JOINT RightFoot
				{
					OFFSET 0.524587 -53.427383 -12.948300
					CHANNELS 3 Xrotation Yrotation Zrotation
					JOINT RightToeBase
					{
						OFFSET -0.192200 -14.009700 16.364100
						CHANNELS 3 Xrotation Yrotation Zrotation
						JOINT RightToe_End
						{
							OFFSET 1.784700 -0.561700 9.474800
							CHANNELS 3 Xrotation Yrotation Zrotation
							End Site
							{
								OFFSET 0 0 0
							}
						}
					}
				}
			}
		}
	}
	JOINT Spine_virtual
	{
		OFFSET 0.000000 0.000000 0.000000
		CHANNELS 3 Xrotation Yrotation Zrotation
		JOINT Spine
		{
			OFFSET 0.072000 7.257294 -0.789700
			CHANNELS 3 Xrotation Yrotation Zrotation
			JOINT Spine1
			{
				OFFSET 0.000000 12.508769 -0.658067
				CHANNELS 3 Xrotation Yrotation Zrotation
				JOINT Spine1_split
				{
					OFFSET 0.000000 12.508769 -0.658067
					CHANNELS 3 Xrotation Yrotation Zrotation
					JOINT Spine2
					{
						OFFSET 0.000000 12.508769 -0.658067
						CHANNELS 3 Xrotation Yrotation Zrotation
						JOINT Neck_virtual
						{
							OFFSET 0.000000 0.000000 0.000000
							CHANNELS 3 Xrotation Yrotation Zrotation
							JOINT Neck
							{
								OFFSET 0.000000 14.033295 7.520400
								CHANNELS 3 Xrotation Yrotation Zrotation
								JOINT Head
								{
									OFFSET 0.000000 8.198502 5.703100
									CHANNELS 3 Xrotation Yrotation Zrotation
									JOINT HeadTop_End
									{
										OFFSET 0.000000 17.760803 13.332701
										CHANNELS 3 Xrotation Yrotation Zrotation
										End Site
										{
											OFFSET 0 0 0
										}
									}
								}
							}
						}
						JOINT LeftShoulder_virtual
						{
							OFFSET 0.000000 0.000000 0.000000
							CHANNELS 3 Xrotation Yrotation Zrotation
							JOINT LeftShoulder
							{
								OFFSET 6.292450 5.785301 -0.669000
								CHANNELS 3 Xrotation Yrotation Zrotation
								JOINT LeftShoulder_split
								{
									OFFSET 6.292450 5.785301 -0.669000
									CHANNELS 3 Xrotation Yrotation Zrotation
									JOINT LeftArm
									{
										OFFSET 13.907140 -6.093903 1.965100
										CHANNELS 3 Xrotation Yrotation Zrotation
										JOINT LeftForeArm
										{
											OFFSET 34.140198 0.000000 0.000000
											CHANNELS 3 Xrotation Yrotation Zrotation
											JOINT LeftHand
											{
												OFFSET 40.960209 0.000000 0.000000
												CHANNELS 3 Xrotation Yrotation Zrotation
												End Site
												{
													OFFSET 0 0 0
												}
											}
										}
									}
								}
							}
						}
						JOINT RightShoulder_virtual
						{
							OFFSET 0.000000 0.000000 0.000000
							CHANNELS 3 Xrotation Yrotation Zrotation
							JOINT RightShoulder
							{
								OFFSET -6.292450 5.785301 -0.669000
								CHANNELS 3 Xrotation Yrotation Zrotation
								JOINT RightShoulder_split
								{
									OFFSET -6.292450 5.785301 -0.669000
									CHANNELS 3 Xrotation Yrotation Zrotation
									JOINT RightArm
									{
										OFFSET -13.907140 -6.093903 1.965100
										CHANNELS 3 Xrotation Yrotation Zrotation
										JOINT RightForeArm
										{
											OFFSET -34.140198 0.000000 0.000000
											CHANNELS 3 Xrotation Yrotation Zrotation
											JOINT RightHand
											{
												OFFSET -40.960209 0.000000 0.000000
												CHANNELS 3 Xrotation Yrotation Zrotation
												End Site
												{
													OFFSET 0 0 0
												}
											}
										}
									}
								}
							}
						}
					}
				}
			}
		}
	}
}
MOTION
Frames: 8
Frame Time: 0.03333333
-1.647065 99.926506 2.536221 0.000000 0.000000 0.000000 -2.374184 -12.781375 -1.242885 -33.620705 14.066358 12.312842 47.905540 4.349653 10.921592 -14.420162 2.791943 -12.545726 -2.634564 -0.056122 -0.521453 0.000000 0.000000 0.000000 -2.754649 -10.308051 -0.857934 -28.898069 -21.922534 -9.862774 45.505049 -1.340041 -12.937545 -16.119735 0.463704 10.526332 -0.713971 0.369429 -0.307391 0.000000 0.000000 0.000000 -1.617329 -15.539826 -1.180730 3.796354 0.647227 1.375328 1.525759 1.480732 0.027842 2.418371 -0.856360 -0.387341 0.000000 0.000000 0.000000 0.524133 1.249900 0.181102 0.905522 -0.256181 4.190934 10.728623 12.764479 -3.683660 0.000000 0.000000 0.000000 1.700155 1.198262 -0.507109 0.620656 0.035524 16.586375 1.530673 1.723036 -2.408090 -53.283259 -50.919118 -50.482031 -3.571744 -59.591522 -3.432183 0.000000 0.000000 0.000000 1.380668 1.591120 0.494399 0.571650 -1.691809 1.596447 -0.247091 2.389862 -0.058796 -112.695123 75.226133 107.204129 -2.612379 25.503583 1.279952 0.000000 0.000000 0.000000 
-1.430619 99.880760 2.201801 0.000000 0.000000 0.000000 -2.268591 -12.846764 -1.203923 -33.481014 13.814731 12.271771 47.664782 4.597450 10.888385 -14.567853 2.813293 -12.424946 -2.291986 -0.031094 -0.662491 0.000000 0.000000 0.000000 -2.747987 -10.490935 -0.792485 -28.660297 -21.987713 -9.962832 45.421639 -1.566669 -12.703805 -16.163364 0.353547 10.347576 -0.392256 0.399996 -0.352237 0.000000 0.000000 0.000000 -1.956280 -15.807366 -1.293507 3.597707 0.709767 1.394287 1.235917 1.494710 0.094838 1.878566 -0.812700 -0.156139 0.000000 0.000000 0.000000 0.734617 1.261331 0.194193 0.802848 -0.361658 4.320971 11.518224 12.912944 -4.061383 0.000000 0.000000 0.000000 1.694726 1.215955 -0.414303 0.541486 0.288172 16.482954 1.878683 1.466269 -2.558933 -51.118075 -50.332593 -49.900556 -2.827808 -59.566414 -2.759531 0.000000 0.000000 0.000000 1.407234 1.566934 0.475838 0.476233 -2.077781 1.122049 0.597411 2.492689 -0.304841 -110.435341 75.599635 104.863997 -2.363093 26.149197 1.181277 0.000000 0.000000 0.000000 
-1.039407 99.748367 1.833447 0.000000 0.000000 0.000000 -2.205958 -13.163923 -1.154985 -33.376382 13.582464 12.030883 47.603895 5.060593 10.850011 -14.639940 2.926483 -12.601635 -1.882033 0.011599 -0.768668 0.000000 0.000000 0.000000 -2.790907 -10.995784 -0.785760 -28.702992 -21.988071 -10.117654 45.614254 -1.759290 -12.425869 -15.932359 0.251771 10.369709 -0.607577 0.452809 -0.447690 0.000000 0.000000 0.000000 -2.180325 -16.510625 -1.339228 3.354446 0.981121 1.484014 1.027691 1.722756 0.292082 1.641328 -1.304156 0.245125 0.000000 0.000000 0.000000 0.958368 1.495008 0.264706 0.493027 -0.363198 4.626388 12.032058 13.558772 -4.798386 0.000000 0.000000 0.000000 1.673476 1.472767 -0.188441 0.370120 0.425211 16.148118 2.148718 1.225331 -2.180209 -48.338249 -50.312802 -48.928876 -2.485759 -60.069232 -2.295251 0.000000 0.000000 0.000000 1.528235 1.732465 0.489222 0.331884 -2.172798 0.306246 1.325541 2.343246 -0.315153 -110.176354 76.417283 104.102765 -2.018874 27.608591 1.044120 0.000000 0.000000 0.000000 
-0.489203 99.554893 1.450443 0.000000 0.000000 0.000000 -2.185453 -13.671501 -1.091019 -33.309388 13.398979 11.560870 47.732043 5.673021 10.807744 -14.660461 3.115223 -12.979824 -1.596402 0.054481 -0.788779 0.000000 0.000000 0.000000 -2.790999 -11.879404 -0.790861 -28.993938 -21.804252 -10.261785 45.987565 -1.952565 -12.167882 -15.608707 0.195724 10.376139 -1.126655 0.503569 -0.505171 0.000000 0.000000 0.000000 -2.228310 -17.513964 -1.301545 3.117372 1.399971 1.729377 1.067830 2.096669 0.622918 2.004617 -2.434712 0.758925 0.000000 0.000000 0.000000 1.245773 1.892384 0.448977 -0.012724 -0.225532 4.939973 12.101763 14.642179 -5.788786 0.000000 0.000000 0.000000 1.661137 1.892845 0.161619 0.163635 0.293724 15.705788 2.205956 1.340468 -1.748617 -45.660494 -50.632855 -47.681796 -2.507179 -60.509725 -2.020119 0.000000 0.000000 0.000000 1.764294 2.044959 0.597052 0.188546 -1.881646 -0.630136 1.825771 1.884727 -0.161145 -112.356188 77.431218 105.299537 -1.676170 29.213966 0.853757 0.000000 0.000000 0.000000 
0.266595 99.296097 1.101910 0.000000 0.000000 0.000000 -2.214999 -14.313956 -0.985264 -33.188716 13.308245 10.849227 47.945681 6.372593 10.712566 -14.687226 3.355407 -13.320488 -1.530000 0.093672 -0.732561 0.000000 0.000000 0.000000 -2.782505 -12.983416 -0.786282 -29.535534 -21.358686 -10.402368 46.553002 -2.240272 -11.960588 -15.196807 0.143869 10.126014 -1.319981 0.540859 -0.443602 0.000000 0.000000 0.000000 -2.058204 -18.471044 -1.193972 2.938000 1.814482 2.160919 1.357054 2.476691 1.055985 2.314493 -3.397695 0.821343 0.000000 0.000000 0.000000 1.581079 2.286913 0.779146 -0.688091 0.064571 5.110725 11.778006 15.981852 -6.844084 0.000000 0.000000 0.000000 1.679146 2.318575 0.615011 -0.057271 -0.153979 15.259529 1.836029 1.808237 -1.601381 -43.353820 -50.912992 -46.311029 -2.796314 -60.332898 -1.875468 0.000000 0.000000 0.000000 2.069639 2.400205 0.848386 0.059973 -1.243870 -1.538129 2.230592 1.091917 0.118880 -117.215431 78.170969 108.652143 -1.474133 30.432403 0.660548 0.000000 0.000000 0.000000 
1.207855 99.016365 0.796009 0.000000 0.000000 0.000000 -2.296791 -15.050942 -0.825767 -33.007227 13.260104 9.938584 48.103236 7.043082 10.530987 -14.739931 3.588403 -13.484668 -1.601413 0.134489 -0.664779 0.000000 0.000000 0.000000 -2.709144 -14.099429 -0.713220 -30.556067 -20.671482 -10.681484 47.410197 -2.609011 -11.814703 -14.479226 0.077965 9.769028 -1.138355 0.554834 -0.260997 0.000000 0.000000 0.000000 -1.761669 -19.265004 -1.085998 2.835826 2.037094 2.745012 1.832798 2.704029 1.536106 2.661805 -4.109823 0.831450 0.000000 0.000000 0.000000 1.958371 2.493097 1.220813 -1.451928 0.429163 5.056915 11.256043 17.297386 -7.649713 0.000000 0.000000 0.000000 1.793917 2.566718 1.118908 -0.296860 -0.777552 15.031626 1.603576 2.612713 -1.684976 -42.036328 -51.253866 -45.539545 -3.127759 -59.493891 -1.760366 0.000000 0.000000 0.000000 2.406205 2.641826 1.234702 -0.053623 -0.466099 -2.296988 2.496355 0.400662 0.463699 -122.616294 78.136415 112.295830 -1.494689 30.920758 0.488094 0.000000 0.000000 0.000000 
2.240441 98.783577 0.520412 0.000000 0.000000 0.000000 -2.405280 -15.762945 -0.654069 -32.776562 13.143710 9.000317 48.160248 7.524782 10.276451 -14.760553 3.728266 -13.438997 -1.618289 0.177181 -0.649170 0.000000 0.000000 0.000000 -2.577263 -14.912576 -0.597804 -32.043631 -19.826164 -11.219224 48.438045 -2.835733 -11.793257 -13.308895 0.077099 9.827751 -0.994755 0.540729 -0.079497 0.000000 0.000000 0.000000 -1.460162 -19.855655 -1.063311 2.799358 1.937673 3.355400 2.392294 2.634522 1.963435 2.476464 -3.929886 0.470132 0.000000 0.000000 0.000000 2.341130 2.398031 1.671237 -1.996752 0.761799 4.863289 10.958440 18.129446 -7.756707 0.000000 0.000000 0.000000 2.031156 2.498054 1.593692 -0.576428 -1.224425 15.101593 1.352279 3.240359 -2.187574 -41.789037 -51.952844 -45.809341 -3.070880 -58.230716 -1.426179 0.000000 0.000000 0.000000 2.683898 2.590854 1.662502 -0.163456 0.118407 -2.851440 2.720696 0.124290 0.739628 -126.184221 77.439114 114.517260 -1.694848 30.730681 0.310443 0.000000 0.000000 0.000000 
3.256065 98.630646 0.358597 0.000000 0.000000 0.000000 -2.516494 -16.316414 -0.553074 -32.456004 12.912002 8.200890 48.077937 7.705317 9.931402 -14.875537 3.684613 -13.135617 -1.461818 0.214545 -0.695628 0.000000 0.000000 0.000000 -2.436889 -15.246111 -0.542954 -33.655576 -19.092619 -11.921942 49.359530 -2.850704 -11.938848 -11.856568 0.134277 10.496290 -1.039797 0.515526 -0.007352 0.000000 0.000000 0.000000 -1.313927 -20.052809 -1.266584 2.802169 1.460433 3.806636 2.862250 2.185134 2.224598 2.076944 -3.122597 -0.219774 0.000000 0.000000 0.000000 2.639166 1.905734 1.985434 -2.027362 0.932725 4.686855 11.201736 17.887736 -6.695107 0.000000 0.000000 0.000000 2.364383 2.023429 1.928448 -0.939722 -1.294329 15.651348 1.020422 3.640829 -2.724967 -42.248664 -53.320220 -46.994270 -2.588081 -56.773195 -0.873531 0.000000 0.000000 0.000000 2.879241 2.144933 1.997267 -0.291134 0.300185 -3.225678 2.999582 0.121421 0.883146 -126.699026 76.265168 114.675816 -2.009146 30.164977 0.102751 0.000000 0.000000 0.000000 
